<?xml version="1.0" standalone="no"?>
<!DOCTYPE svg PUBLIC "-//W3C//DTD SVG 20010904//EN"
 "http://www.w3.org/TR/2001/REC-SVG-20010904/DTD/svg10.dtd">
<svg version="1.0" xmlns="http://www.w3.org/2000/svg"
 width="132.000000pt" height="150.000000pt" viewBox="0 0 132.000000 150.000000"
 preserveAspectRatio="xMidYMid meet">

<g transform="translate(0.000000,150.000000) scale(0.100000,-0.100000)"
fill="#000000" stroke="none">
<path d="M210 1272 l0 -172 -42 -53 c-55 -66 -103 -171 -123 -265 -8 -40 -20
-82 -25 -93 -9 -16 -7 -21 17 -30 385 -150 580 -219 623 -219 43 0 238 69 623
219 24 9 26 14 17 30 -5 11 -17 53 -25 93 -17 78 -68 197 -110 251 -25 33 -25
37 -25 213 l0 179 -24 -58 c-20 -48 -94 -158 -115 -171 -4 -3 -39 11 -79 31
-105 50 -220 69 -335 54 -49 -6 -116 -23 -150 -36 -33 -14 -66 -25 -73 -25
-20 0 -93 97 -125 165 l-28 60 -1 -173z m330 -464 c0 -10 -84 -148 -90 -148
-8 0 -264 228 -268 238 -1 4 79 -13 178 -38 99 -25 180 -48 180 -52z m589 78
c-40 -40 -254 -226 -259 -226 -6 0 -90 138 -90 148 0 8 352 100 359 95 3 -2
-2 -10 -10 -17z"/>
</g>
</svg>
