<?xml version="1.0" encoding="iso-8859-1"?>
<!-- Generator: Adobe Illustrator 19.0.0, SVG Export Plug-In . SVG Version: 6.00 Build 0)  -->
<svg version="1.1" id="Layer_1" xmlns="http://www.w3.org/2000/svg" xmlns:xlink="http://www.w3.org/1999/xlink" x="0px" y="0px"
	 viewBox="0 0 512 512" style="enable-background:new 0 0 512 512;" xml:space="preserve">
<path style="fill:#666666;" d="M512,229.135c-27.813-7.919-58.961-0.936-80.87,20.961c-8.051,8.051-14.086,17.35-18.094,27.285
	c-1.452,3.552-2.628,7.175-3.552,10.859c-1.08-0.684-2.172-1.332-3.276-1.968c-0.948-0.54-1.896-1.068-2.844-1.572
	c-24.321-12.886-52.841-15.034-78.554-6.443c-8.519,2.832-16.726,6.851-24.369,12.058c-5.147,3.492-10.043,7.523-14.602,12.083
	c-20.421,20.433-30.164,47.478-29.228,74.235h-1.236c0.936-26.757-8.795-53.801-29.228-74.235
	c-32.624-32.624-82.166-37.999-120.369-16.126c-1.104,0.636-2.196,1.284-3.276,1.968C99,274.262,91.789,261.027,80.87,250.097
	C58.961,228.199,27.813,221.216,0,229.135l132.439-93.768l8.063,24.621c9.935,30.368,38.251,50.886,70.191,50.886v-53.537
	l11.627,9.515c19.594,16.03,47.766,16.03,67.36,0l11.615-9.515v53.537c23.649,0,45.306-11.243,58.973-29.396
	c4.811-6.371,8.639-13.606,11.219-21.489l8.063-24.621l9.347,6.611L512,229.135z"/>
<g>
	<path style="fill:#F95428;" d="M239.198,221.362c-2.65,0-4.799-2.149-4.799-4.799v-10.399c0-2.65,2.149-4.799,4.799-4.799
		s4.799,2.149,4.799,4.799v10.399C243.998,219.213,241.849,221.362,239.198,221.362z"/>
	<path style="fill:#F95428;" d="M272.794,221.362c-2.65,0-4.799-2.149-4.799-4.799v-10.399c0-2.65,2.149-4.799,4.799-4.799
		s4.799,2.149,4.799,4.799v10.399C277.594,219.213,275.445,221.362,272.794,221.362z"/>
</g>
<g>
	<path style="fill:#4D4D4D;" d="M413.036,277.381c-1.452,3.552-2.628,7.175-3.552,10.859c-1.08-0.684-2.172-1.332-3.276-1.968
		c-0.948-0.54-1.896-1.068-2.844-1.572l-23.805-133.567c-2.184,9.863-5.171,21.597-9.179,34.412
		c-8.339,26.661-22.581,62.044-45.57,92.712c-8.519,2.832-16.726,6.851-24.369,12.059c30.644-31.664,49.062-74.175,59.825-108.838
		c4.811-6.371,8.639-13.606,11.219-21.489l8.063-24.621l9.347,6.611L413.036,277.381z"/>
	<path style="fill:#4D4D4D;" d="M98.952,277.381c1.452,3.552,2.628,7.175,3.552,10.859c1.08-0.684,2.172-1.332,3.276-1.968
		c0.948-0.54,1.896-1.068,2.844-1.572l23.805-133.567c2.184,9.863,5.171,21.597,9.179,34.412
		c8.339,26.661,22.581,62.044,45.57,92.712c8.519,2.832,16.726,6.851,24.369,12.059c-30.644-31.664-49.062-74.175-59.825-108.838
		c-4.811-6.371-8.639-13.606-11.219-21.489l-8.063-24.621l-9.347,6.611L98.952,277.381z"/>
</g>
<g>
</g>
<g>
</g>
<g>
</g>
<g>
</g>
<g>
</g>
<g>
</g>
<g>
</g>
<g>
</g>
<g>
</g>
<g>
</g>
<g>
</g>
<g>
</g>
<g>
</g>
<g>
</g>
<g>
</g>
</svg>
