<?xml version="1.0" standalone="no"?>
<!DOCTYPE svg PUBLIC "-//W3C//DTD SVG 20010904//EN"
 "http://www.w3.org/TR/2001/REC-SVG-20010904/DTD/svg10.dtd">
<svg version="1.0" xmlns="http://www.w3.org/2000/svg"
 width="232.000000pt" height="225.000000pt" viewBox="0 0 232.000000 225.000000"
 preserveAspectRatio="xMidYMid meet">

<g transform="translate(0.000000,225.000000) scale(0.100000,-0.100000)"
fill="#000000" stroke="none">
<path d="M1650 940 c-1 -66 -27 -149 -68 -217 -23 -38 -44 -85 -46 -104 l-5
-36 52 4 c80 6 148 24 154 39 7 20 -19 136 -29 126 -4 -4 -1 -32 7 -60 9 -29
13 -57 10 -62 -8 -13 -70 -27 -127 -29 -46 -2 -48 -1 -48 27 0 15 5 33 11 39
32 32 77 127 88 186 6 32 13 62 16 67 3 4 1 19 -4 32 -9 21 -10 20 -11 -12z"/>
<path d="M845 802 c-16 -11 -48 -73 -41 -79 3 -4 6 -1 6 5 0 6 14 27 31 47 28
31 30 47 4 27z"/>
<path d="M670 741 c0 -32 -3 -71 -6 -87 -3 -17 0 -36 8 -47 11 -15 13 -3 10
73 -2 61 1 96 8 106 10 11 9 14 -4 14 -13 0 -16 -11 -16 -59z"/>
<path d="M1730 785 c-8 -9 -8 -15 -2 -15 12 0 26 19 19 26 -2 2 -10 -2 -17
-11z"/>
<path d="M844 682 c15 -17 25 -35 21 -42 -4 -6 -1 -17 5 -25 6 -8 9 -22 6 -33
-4 -12 2 -26 19 -42 14 -13 25 -18 25 -12 0 6 -7 15 -16 20 -16 9 -19 21 -22
99 -2 26 -9 36 -34 49 l-33 16 29 -30z"/>
<path d="M901 494 c0 -11 3 -14 6 -6 3 7 2 16 -1 19 -3 4 -6 -2 -5 -13z"/>
<path d="M895 460 c3 -5 8 -10 11 -10 2 0 4 5 4 10 0 6 -5 10 -11 10 -5 0 -7
-4 -4 -10z"/>
<path d="M920 441 c0 -13 25 -21 92 -28 32 -3 65 -11 74 -17 18 -14 37 -90 29
-117 -4 -11 -2 -19 4 -19 17 0 13 82 -7 120 -18 37 -41 47 -110 49 -24 1 -52
6 -63 11 -11 6 -19 7 -19 1z"/>
<path d="M1070 286 c0 -2 7 -7 16 -10 8 -3 12 -2 9 4 -6 10 -25 14 -25 6z"/>
</g>
</svg>
